# xmcd
# 
# Track frame offsets:
#     150
#     17562
#     30947
#     43692
#     66682
#     84542
#     101410
#     128103
#     141206
#     158458
#     181258
#     200692
# 
# Disc length: 2881
# 
# Revision: 1
# Processed by: cddbd v1.5.2PL0 Copyright (c) Steve Scherf et al.
# Submitted via: fre:ac v1.0.31
# 
DISCID=9a0b3f0c
DTITLE=Robert Cray - That's What I Heard
DYEAR=0
DGENRE=Blues
TTITLE0=Anything You Want
TTITLE1=Burying Ground
TTITLE2=You're The One
TTITLE3=This Man
TTITLE4=You'll Want Me Back
TTITLE5=Hot
TTITLE6=Promises You Can't Keep
TTITLE7=To Be With You
TTITLE8=My Baby Likes To Boogaloo
TTITLE9=Can't Make Me Change
TTITLE10=A Little Less Lonely
TTITLE11=Do It
EXTD=
EXTT0=
EXTT1=
EXTT2=
EXTT3=
EXTT4=
EXTT5=
EXTT6=
EXTT7=
EXTT8=
EXTT9=
EXTT10=
EXTT11=
PLAYORDER=
